<svg width="182" height="182" viewBox="0 0 182 182" fill="none" xmlns="http://www.w3.org/2000/svg">
<path d="M181 1H1V181H181V1Z" fill="#5F44F9" stroke="#181720"/>
<path fill-rule="evenodd" clip-rule="evenodd" d="M168.946 95.0146L160.56 74.8965C159.421 72.1538 157.22 69.9938 154.457 68.9105L103.867 48.9638C101.789 48.141 100.068 46.6324 98.9849 44.6782L92.8206 33.5358C91.2641 30.7245 88.5419 28.7291 85.3877 28.0983L36.9918 18.3615C33.2206 17.6073 29.3258 18.8826 26.7339 21.7214L1.33606 49.526V180.657H146.681L82.933 130.986C73.5939 123.711 73.0042 109.805 81.685 101.762L90.8252 93.2867C91.8126 92.3679 93.0949 91.8536 94.4388 91.8262L152.311 90.5988C154.155 90.5576 155.979 90.9896 157.618 91.8399L167.046 96.7563C168.185 97.3528 169.439 96.2009 168.946 95.0146ZM80.8827 60.9565C76.8509 60.9565 73.5802 57.6857 73.5802 53.6539C73.5802 49.622 76.8509 46.3444 80.8827 46.3444C84.9146 46.3444 88.1922 49.6152 88.1922 53.6539C88.1922 57.6926 84.9214 60.9565 80.8827 60.9565Z" fill="#1B2023"/>
</svg>
