<svg xmlns="http://www.w3.org/2000/svg" viewBox="0 0 74.67 93.25"><defs><style>.cls-1{fill:#ed7899;}.cls-2{fill:#8d6c9f;}.cls-3{fill:#acb7d0;}.cls-4{fill:#c5e4fa;}.cls-5{fill:#e3f2ff;}.cls-6{fill:#fff8f8;}.cls-7{fill:#f9e3ae;}.cls-8{fill:#72caaf;}.cls-9{fill:#85cbf8;}.cls-10{fill:#ace3ff;}.cls-11{fill:#7bbeeb;}</style></defs><title>hl1</title><g id="Layer_2" data-name="Layer 2"><g id="Layer_1-2" data-name="Layer 1"><circle class="cls-1" cx="34.69" cy="24.78" r="4.84"/><path class="cls-2" d="M34.69,30.42a5.65,5.65,0,1,1,5.65-5.64A5.65,5.65,0,0,1,34.69,30.42Zm0-9.68a4,4,0,1,0,4,4A4,4,0,0,0,34.69,20.74Z"/><path class="cls-2" d="M34.69,35.26c-13.56,0-24.2-4.6-24.2-10.48s10.64-10.49,24.2-10.49S58.9,18.89,58.9,24.78,48.26,35.26,34.69,35.26Zm0-19.36c-12.24,0-22.58,4-22.58,8.88s10.34,8.87,22.58,8.87,22.59-4,22.59-8.87S46.94,15.9,34.69,15.9Z"/><path class="cls-2" d="M25.26,46.42a5.24,5.24,0,0,1-2.67-.69C20.05,44.27,19,40.66,19.7,35.57a45.21,45.21,0,0,1,5.91-16A45.72,45.72,0,0,1,36.54,6.38c4-3.12,7.71-4,10.26-2.56h0C49.34,5.29,50.36,8.89,49.69,14a45.6,45.6,0,0,1-5.91,16A45.24,45.24,0,0,1,32.84,43.16C30,45.32,27.44,46.42,25.26,46.42ZM44.11,4.75c-1.8,0-4.1,1-6.59,2.92A43.07,43.07,0,0,0,27,20.34a44.44,44.44,0,0,0-5.71,15.45c-.57,4.33.19,7.44,2.1,8.55s5,.21,8.46-2.42A43.48,43.48,0,0,0,42.37,29.25,44.82,44.82,0,0,0,48.09,13.8c.57-4.34-.2-7.45-2.11-8.56h0A3.81,3.81,0,0,0,44.11,4.75Z"/><path class="cls-2" d="M44.11,46.42c-2.17,0-4.77-1.1-7.58-3.23A45.53,45.53,0,0,1,25.6,30.05a45.41,45.41,0,0,1-5.91-16C19,8.92,20,5.32,22.59,3.85s6.17-.56,10.24,2.57A45.4,45.4,0,0,1,43.77,19.56a45.26,45.26,0,0,1,5.91,16.05c.67,5.08-.35,8.69-2.89,10.16A5.34,5.34,0,0,1,44.11,46.42ZM25.26,4.75a3.78,3.78,0,0,0-1.87.46h0c-1.91,1.11-2.68,4.22-2.1,8.55A43.65,43.65,0,0,0,27,29.21,44.19,44.19,0,0,0,37.49,41.89C41,44.55,44,45.44,46,44.31s2.68-4.22,2.1-8.55a43.68,43.68,0,0,0-5.72-15.45A44.18,44.18,0,0,0,31.85,7.63c-2.49-1.88-4.78-2.88-6.59-2.88Z"/><path class="cls-2" d="M17.32,36.07h-.11l-1.61-.21a.81.81,0,1,1,.21-1.61l1.61.21a.81.81,0,1,1-.1,1.61Z"/><path class="cls-2" d="M15.49,40a.81.81,0,0,1,0-1.62l1.61,0a.81.81,0,1,1,0,1.61l-1.61,0Z"/><path class="cls-2" d="M16.15,44.21a.81.81,0,1,1-.24-1.61l1.54-.48a.81.81,0,0,1,.47,1.55l-1.54.47A.88.88,0,0,1,16.15,44.21Z"/><path class="cls-2" d="M18.2,48.05a.81.81,0,0,1-.53-1.42l1.23-1.05A.81.81,0,0,1,20,46.81h0l-1.23,1A.83.83,0,0,1,18.2,48.05Z"/><path class="cls-2" d="M53.87,13.26h-.08l-1.61-.1a.81.81,0,0,1,0-1.62h.05l1.62.09a.81.81,0,0,1,0,1.62Z"/><path class="cls-2" d="M52.11,9.29A.81.81,0,1,1,52,7.67l1.61-.24a.81.81,0,0,1,.93.69.81.81,0,0,1-.68.92l-1.62.25Z"/><path class="cls-2" d="M51,5.69a.8.8,0,0,1-.81-.8.82.82,0,0,1,.44-.73l1.43-.75a.81.81,0,0,1,.75,1.43l-1.43.75A.86.86,0,0,1,51,5.69Z"/><path class="cls-2" d="M48.62,2.93a.75.75,0,0,1-.46-.15A.82.82,0,0,1,48,1.65L48.9.34A.8.8,0,0,1,50,.15a.79.79,0,0,1,.2,1.12h0l-.94,1.31A.82.82,0,0,1,48.62,2.93Z"/><rect class="cls-3" x="0.76" y="28.95" width="25.91" height="47.25" rx="4.57"/><path class="cls-3" d="M.76,68.58H26.68v3A4.58,4.58,0,0,1,22.1,76.2H5.34A4.58,4.58,0,0,1,.76,71.63v-3Z"/><path class="cls-4" d="M.76,35H26.68V68.58H.76Z"/><path class="cls-5" d="M13,68.58l14-14-.28-11.15L1.52,68.58ZM.76,66.29,26.68,40.38V35.81L.76,61.72Zm0-7.62L24.39,35H20.58L.76,54.86Z"/><path class="cls-6" d="M6.48,38.09l.94,1.72,1.73.95-1.73.94-.94,1.73-1-1.73-1.72-.94,1.72-.95Zm6,10,.65,1.2,1.2.65-1.2.65-.65,1.19-.65-1.19L10.67,50l1.19-.65Zm-6.68,8,.44.82.82.44-.82.45-.44.81-.44-.81-.82-.45L5.39,57Z"/><path class="cls-1" d="M34.69,50.29a.76.76,0,0,1,.76.76v1.19c0,7.49-5,12.53-12.39,12.53a12.91,12.91,0,1,1,0-25.82,13.27,13.27,0,0,1,8,2.63.77.77,0,0,1,.18,1.06.18.18,0,0,1-.05.07l-2.34,2.65a.76.76,0,0,1-1,.12A8.22,8.22,0,0,0,23.06,44a7.91,7.91,0,1,0-.5,15.81h.5c3.71,0,6.15-1.75,7-4.9H24.39a.76.76,0,0,1-.76-.77V51.05a.76.76,0,0,1,.76-.76Z"/><path class="cls-7" d="M34.69,50.29a.76.76,0,0,1,.76.76v1.19c0,7.49-5,12.53-12.39,12.53A13,13,0,0,1,9.91,51.86c0-2.87,1.29-5.34,2.57-7.67A22.45,22.45,0,0,1,16,47.24a8.26,8.26,0,0,0-1,4.62,8,8,0,0,0,8.06,7.91c3.71,0,6.15-1.76,7-4.91H24.39a.76.76,0,0,1-.76-.76V51.05a.76.76,0,0,1,.76-.76Z"/><path class="cls-8" d="M34.69,50.29a.76.76,0,0,1,.76.76v1.19c0,7.49-5,12.53-12.39,12.53a13.22,13.22,0,0,1-11.63-6.86c-.48-.89.82-.94,1.91-1.59s2.06-1.91,2.28-1.44a8.07,8.07,0,0,0,7.45,4.91c3.71,0,6.15-1.75,7-4.91H24.39a.76.76,0,0,1-.76-.76V51.05a.76.76,0,0,1,.76-.76Z"/><path class="cls-9" d="M34.69,50.29a.76.76,0,0,1,.76.76v1.19a12.73,12.73,0,0,1-3.19,8.83c-1.09,1.17-1.37-.24-2.28-1.16S27.62,58.55,28.24,58a6.5,6.5,0,0,0,1.8-3.1H24.39a.76.76,0,0,1-.76-.76V51.05a.76.76,0,0,1,.76-.76Z"/><path class="cls-2" d="M5.34,61.72a.76.76,0,0,0-.77.76V64A.77.77,0,1,0,6.1,64V62.48A.76.76,0,0,0,5.34,61.72Zm3.81,0a.76.76,0,0,0-.77.76V64a.77.77,0,1,0,1.53,0V62.48A.76.76,0,0,0,9.15,61.72Zm3.81,0a.77.77,0,0,0-.77.76V64a.77.77,0,0,0,.77.77.76.76,0,0,0,.76-.77V62.48A.76.76,0,0,0,13,61.72Zm.76,9.14a1.53,1.53,0,1,0,0,3,1.53,1.53,0,0,0,0-3Zm.76-38.1h3.05a.77.77,0,0,0,0-1.53H14.48a.77.77,0,0,0,0,1.53Zm-4.57,0h1.52a.77.77,0,0,0,0-1.53H9.91a.77.77,0,0,0,0,1.53Z"/><path class="cls-2" d="M34.69,49.52H27.44V46.14a1.51,1.51,0,0,0,1.93-.28l2.34-2.64a1.54,1.54,0,0,0,.38-1.16A1.56,1.56,0,0,0,31.47,41a14.29,14.29,0,0,0-4-2.13h0V33.52a5.34,5.34,0,0,0-5.34-5.34H5.34A5.34,5.34,0,0,0,0,33.52V71.63A5.34,5.34,0,0,0,5.34,77H22.1a5.34,5.34,0,0,0,5.34-5.33V64.9c5.38-1.66,8.76-6.31,8.76-12.66V51.05A1.53,1.53,0,0,0,34.69,49.52Zm-10.3,6.1H29C28,57.84,26,59,23,59a7.15,7.15,0,0,1-.47-14.3H23a7.42,7.42,0,0,1,2.86.58v4.23H24.39a1.54,1.54,0,0,0-1.53,1.53V54.1A1.53,1.53,0,0,0,24.39,55.62ZM23.06,64a12.41,12.41,0,0,1-10.68-6l2.86-2.15a8.83,8.83,0,0,0,7.83,4.7,8.58,8.58,0,0,0,5-1.4l2.68,2.29A11.77,11.77,0,0,1,23.06,64ZM12.38,45.71l2.86,2.14a8.46,8.46,0,0,0-.62,6.52l-3,2.23a11.86,11.86,0,0,1,.77-10.89Zm15.87-.84a8.9,8.9,0,0,0-12.19,1.7l-2.82-2.11A12.42,12.42,0,0,1,23,39.72a12.57,12.57,0,0,1,7.52,2.49ZM5.34,29.71H22.1a3.8,3.8,0,0,1,3.81,3.81v.76H1.52v-.76A3.81,3.81,0,0,1,5.34,29.71ZM22.1,75.44H5.34a3.82,3.82,0,0,1-3.82-3.81V69.34H25.91v2.29A3.81,3.81,0,0,1,22.1,75.44Zm3.81-7.62H1.52v-3A.76.76,0,0,0,2.29,64V62.48a.76.76,0,0,0-.77-.76V35.81H25.91V38.5a13.67,13.67,0,0,0-2.85-.31A13.82,13.82,0,0,0,9.15,51.86,13.6,13.6,0,0,0,16,63.62V64a.76.76,0,0,0,.77.76.79.79,0,0,0,.66-.4,14.08,14.08,0,0,0,5.62,1.17,16.06,16.06,0,0,0,2.85-.25Zm8.77-15.58a12,12,0,0,1-2.84,8.11L29.2,58.07a7.53,7.53,0,0,0,1.57-3,.77.77,0,0,0-.55-.93.5.5,0,0,0-.21,0H24.39v-3h10.3Z"/><path class="cls-10" d="M39.67,62.24l17-30,17,30-17,10.91Z"/><path class="cls-9" d="M56.67,32.24l17,30-17,10.91Z"/><path class="cls-10" d="M39.67,67.24l17,10,17-10-17,25Z"/><path class="cls-9" d="M56.67,77.24l17-10-17,25Zm-17-15,17-8.18,17,8.18-17,10.91Z"/><path class="cls-11" d="M56.67,54.06l17,8.18-17,10.91Z"/><path class="cls-2" d="M56.67,74.15a1,1,0,0,1-.54-.16l-17-10.91a1,1,0,0,1-.33-1.33l17-30a1,1,0,0,1,1.74,0l17,30a1,1,0,0,1-.33,1.33L57.21,74A1,1,0,0,1,56.67,74.15ZM41,61.91,56.67,72l15.67-10L56.67,34.24Z"/><path class="cls-2" d="M56.67,74.15a1,1,0,0,1-1-1V32.24a1,1,0,0,1,1.87-.49l17,30a1,1,0,0,1-.33,1.33L57.21,74A1,1,0,0,1,56.67,74.15Zm1-38.12V71.32l14.67-9.41Z"/><path class="cls-2" d="M56.67,93.24a1,1,0,0,1-.83-.44l-17-24.91a1,1,0,0,1,1.37-1.4L56.67,77.05,73.13,66.49a1,1,0,0,1,1.36,1.41l-17,24.91A1,1,0,0,1,56.67,93.24ZM43.27,70.83l13.4,19.64,13.4-19.64L57.21,79.08a1,1,0,0,1-1.08,0Z"/><path class="cls-2" d="M56.67,93.24a1.5,1.5,0,0,1-.3,0,1,1,0,0,1-.7-1v-14a1,1,0,0,1,.46-.84l17-10.91a1,1,0,0,1,1.36,1.41l-17,24.9A1,1,0,0,1,56.67,93.24Zm1-14.45V89l12.4-18.17Zm-1-4.64a1,1,0,0,1-.54-.16l-17-10.91a1,1,0,0,1,.1-1.74l17-8.18a1,1,0,0,1,.87,0l17,8.18a1,1,0,0,1,.11,1.74L57.21,74A1,1,0,0,1,56.67,74.15Zm-15-11.78,15,9.59,15-9.59-15-7.2Z"/><path class="cls-2" d="M56.67,74.15a1,1,0,0,1-1-1V54.06a1,1,0,0,1,1-1,1,1,0,0,1,.43.1l17,8.18a1,1,0,0,1,.11,1.74L57.21,74A1,1,0,0,1,56.67,74.15Zm1-18.5V71.32l14-9Z"/></g></g></svg>