<svg xmlns="http://www.w3.org/2000/svg" viewBox="0 0 91.65 78"><defs><style>.cls-1{fill:#85cbf8;}.cls-2{fill:#f9dd8f;}.cls-3{fill:#8d6c9e;}.cls-4{fill:#ace3ff;}.cls-5{fill:#efc88e;}.cls-6{fill:#8d6c9f;}.cls-7{fill:#8b8e98;}.cls-8{fill:#7e8189;}.cls-9{fill:#faefde;}</style></defs><title>hl2</title><g id="Layer_2" data-name="Layer 2"><g id="Layer_1-2" data-name="Layer 1"><path class="cls-1" d="M62.65,1c-9.93,0-13,4.71-13,7.76V14h13v4H42.41c-3.94,0-7.76,2.85-7.76,11s3.82,11,7.76,11h7.51V34.09A5.1,5.1,0,0,1,55,29H70.28a5.35,5.35,0,0,0,5.37-5.09V8.76C75.65,5.58,72.57,1,62.65,1Z"/><path class="cls-2" d="M62.65,57c9.92,0,12.72-4.71,12.72-7.76V44H62.65V40H82.88c4,0,7.77-2.85,7.77-11s-3.82-11-7.77-11H75.65v5.91A5.35,5.35,0,0,1,70.28,29H55a5.34,5.34,0,0,0-5.36,5.09V49.24C49.65,52.29,52.72,57,62.65,57Z"/><path class="cls-3" d="M57.15,6a2.5,2.5,0,1,0,2.5,2.5A2.5,2.5,0,0,0,57.15,6Zm12,41a2.5,2.5,0,1,0,2.5,2.5A2.5,2.5,0,0,0,69.15,47Z"/><path class="cls-4" d="M34.65,29c0,8.15,3.82,11,7.76,11h6.3a5,5,0,0,0-5-5h-1.3c-2,0-2.76-3.1-2.76-6s.72-6,2.75-6l16.28,0h0a5,5,0,0,0,5-5v0H42.41C38.47,18,34.65,20.85,34.65,29Z"/><path class="cls-5" d="M90.69,29c0-8.15-3.81-11-7.76-11h-6.3a5,5,0,0,0,5,5h1.3c2,0,2.76,3.1,2.76,6s-.72,6-2.75,6L66.66,35h0a5,5,0,0,0-5,5v0H82.93C86.88,40,90.69,37.15,90.69,29Z"/><path class="cls-6" d="M50.65,41H42.41c-2,0-8.76-.87-8.76-12s6.71-12,8.76-12H61.65V15h-13V8.76c0-3,2.92-8.76,14-8.76s14,5.51,14,8.76V23.91A6.32,6.32,0,0,1,70.28,30H55a4.34,4.34,0,0,0-4.36,4.09ZM42.41,19c-4.3,0-6.76,3.65-6.76,10s2.46,10,6.76,10h6.24V34.09A6.31,6.31,0,0,1,55,28H70.28a4.35,4.35,0,0,0,4.37-4.09V8.76c0-2.51-2.53-6.76-12-6.76s-12,4.42-12,6.76V13h13v6Z"/><path class="cls-3" d="M62.65,58c-11.08,0-14-5.73-14-8.76V34.09A6.31,6.31,0,0,1,55,28H70.28a4.35,4.35,0,0,0,4.37-4.09V17h8.23c2.06,0,8.77.86,8.77,12s-6.71,12-8.77,12H63.65v2h13v6.24C76.65,52.27,73.72,58,62.65,58ZM55,30a4.34,4.34,0,0,0-4.36,4.09V49.24c0,2.34,2.51,6.76,12,6.76s12-4.42,12-6.76V45h-13V39H82.88c4.3,0,6.77-3.65,6.77-10s-2.47-10-6.77-10H76.65v4.91A6.32,6.32,0,0,1,70.28,30Z"/><path class="cls-6" d="M68.3,37a1,1,0,0,1-1-1V34a1,1,0,0,1,2,0v2A1,1,0,0,1,68.3,37Zm4.57,0a1,1,0,0,1-1-1V34a1,1,0,0,1,2,0v2A1,1,0,0,1,72.87,37Zm4.56,0a1,1,0,0,1-1-1V34a1,1,0,0,1,2,0v2A1,1,0,0,1,77.43,37ZM82,37a1,1,0,0,1-1-1V34a1,1,0,0,1,2,0v2A1,1,0,0,1,82,37Z"/><path class="cls-6" d="M46.3,25.08a1,1,0,0,1-1-1v-2a1,1,0,0,1,2,0v2A1,1,0,0,1,46.3,25.08Zm4.56,0a1,1,0,0,1-1-1v-2a1,1,0,0,1,2,0v2A1,1,0,0,1,50.86,25.08Zm4.57,0a1,1,0,0,1-1-1v-2a1,1,0,1,1,2,0v2A1,1,0,0,1,55.43,25.08Zm4.57,0a1,1,0,0,1-1-1v-2a1,1,0,0,1,2,0v2A1,1,0,0,1,60,25.08Z"/><path class="cls-7" d="M29,21A28,28,0,1,0,57,49,28,28,0,0,0,29,21Z"/><path class="cls-8" d="M29,72A23,23,0,1,1,52,49,23,23,0,0,1,29,72Z"/><path class="cls-9" d="M34.06,61.34A11,11,0,0,1,37,68v5.25c0,.55.23,2.13.9,2.31L29,77.17l-9-1.61c.72-.16,1-1.77,1-2.32V70c-7.79,1.69-9.4-4.3-9.4-4.3-1.28-3.23-3.11-4.1-3.11-4.1-2.54-1.73.19-1.7.19-1.7A5.91,5.91,0,0,1,13,62.78c2.5,4.27,6.44,3.92,8,3.21.26-1.81,2.1-3.93,2.9-4.63-6.22-.71-12.76-3.11-12.76-13.84A10.87,10.87,0,0,1,14,40a10.1,10.1,0,0,1,.28-7.41s2.35-.75,7.7,2.87a26.6,26.6,0,0,1,14,0c5.34-3.62,7.69-2.87,7.69-2.87A10,10,0,0,1,44,40a10.8,10.8,0,0,1,2.87,7.51C46.84,58.28,40.3,60.65,34.06,61.34Z"/><path class="cls-6" d="M29,20a29,29,0,0,0-9.54,56.38.92.92,0,0,0,.55.19A29,29,0,1,0,29,20Zm-7.3,55a5.68,5.68,0,0,0,.3-1.74V70a1,1,0,0,0-1-1l-.24,0c-6.72,1.46-8.17-3.38-8.23-3.58V65.3a9.45,9.45,0,0,0-3-4.24,5.39,5.39,0,0,1,2.56,2.2c2.64,4.53,7,4.65,9.3,3.62a1,1,0,0,0,.58-.77,8.74,8.74,0,0,1,2.56-4,1,1,0,0,0,.08-1.41,1,1,0,0,0-.64-.33c-5.87-.67-11.87-2.72-11.87-12.84a9.85,9.85,0,0,1,2.62-6.84A1,1,0,0,0,15,39.63a8.86,8.86,0,0,1,0-6.09c.85,0,2.92.39,6.42,2.76a1,1,0,0,0,.83.14,25.69,25.69,0,0,1,13.48,0,1,1,0,0,0,.83-.14c3.51-2.38,5.59-2.74,6.41-2.77a8.83,8.83,0,0,1,.07,6.1,1,1,0,0,0,.19,1,9.79,9.79,0,0,1,2.61,6.84c0,10.13-6,12.17-11.89,12.82a1,1,0,0,0-.88,1.11,1,1,0,0,0,.34.64A10.2,10.2,0,0,1,36,68v5.25A6.41,6.41,0,0,0,36.27,75,26.79,26.79,0,0,1,21.68,75Zm16.5-.6a4.25,4.25,0,0,1-.2-1.13V68a11.64,11.64,0,0,0-2-5.91c5.55-.94,11.89-3.82,11.89-14.56a11.75,11.75,0,0,0-2.74-7.73,11.36,11.36,0,0,0-.48-7.56,1,1,0,0,0-.62-.58c-.28-.09-2.85-.76-8.18,2.74a27.71,27.71,0,0,0-13.66,0c-5.33-3.5-7.9-2.83-8.18-2.74a1,1,0,0,0-.62.58,11.49,11.49,0,0,0-.48,7.56,11.8,11.8,0,0,0-2.74,7.73c0,10.65,6.23,13.58,11.73,14.56a9.88,9.88,0,0,0-1.74,3.16c-1.42.4-4.34.41-6.29-2.94a6.88,6.88,0,0,0-5.15-3.4c-.54,0-1.9.09-2.22,1.13s.91,2,1.46,2.4l.13.07c.06,0,1.52.8,2.6,3.53.23.71,2.22,6.1,9.35,5.15v2.06a3.59,3.59,0,0,1-.21,1.13,27,27,0,1,1,18.41,0Z"/><path class="cls-6" d="M29,55a1,1,0,0,0-1,1v2a1,1,0,0,0,2,0V56A1,1,0,0,0,29,55Zm4.6,2.53A1,1,0,1,0,35.51,57h0L35,55.07a1,1,0,0,0-1.93.52Zm-13.85-5a1,1,0,0,0-1.36.37h0l-1,1.73A1,1,0,0,0,17.79,56a1,1,0,0,0,1.3-.35l1-1.73a1,1,0,0,0-.35-1.36Zm19.13,3.1a1,1,0,1,0,1.78-.92l0-.08-1-1.73a1,1,0,0,0-1.73,1ZM24.19,54.36a1,1,0,0,0-1.22.71L22.45,57a1,1,0,0,0,1.92.59s0,0,0-.07l.52-1.93A1,1,0,0,0,24.19,54.36ZM39.33,27.45a24.94,24.94,0,0,0-2.3-1,1,1,0,0,0-1.25.66,1,1,0,0,0,.55,1.21,21.87,21.87,0,0,1,2.1.92.91.91,0,0,0,.45.11,1,1,0,0,0,1-1,1,1,0,0,0-.55-.89Zm-6.7-2.17a23.2,23.2,0,0,0-15,2.72,1,1,0,0,0-.37,1.37,1,1,0,0,0,.87.5,1,1,0,0,0,.49-.13,21.18,21.18,0,0,1,13.7-2.48,1,1,0,1,0,.32-2Z"/></g></g></svg>